General
Format : Matroska
Format version : Version 2
File size : 15.2 GiB
Duration : 2 h 9 min
Overall bit rate : 16.8 Mb/s
Encoded date : UTC 2012-05-13 11:20:45
Writing application : mkvmerge v5.5.0 ('Healer') built on Apr 6 2012 21:43:24
Writing library : libebml v1.2.3 + libmatroska v1.3.0
Video
ID : 1
Format : VC-1
Format profile : AP@L3
Codec ID : WVC1
Codec ID/Hint : Microsoft
Duration : 2 h 9 min
Bit rate : 13.5 Mb/s
Width : 1920 pixels
Height : 1080 pixels
Display aspect ratio : 16:9
Frame rate : 23.976 FPS
Chroma subsampling : 4:2:0
Bit depth : 8 bits
Scan type : Progressive
Compression mode : Lossy
Bits/(Pixel*Frame) : 0.272
Stream size : 12.2 GiB (81%)
Language : Spanish
Default : Yes
Forced : Yes
Audio #1
ID : 2
Format : AC-3
Format/Info : Audio Coding 3
Mode extension : CM (complete main)
Format settings, Endianness : Big
Muxing mode : Header stripping
Codec ID : A_AC3
Duration : 2 h 9 min
Bit rate mode : Constant
Bit rate : 640 kb/s
Channel(s) : 6 channels
Channel positions : Front: L C R, Side: L R, LFE
Sampling rate : 48.0 kHz
Bit depth : 16 bits
Compression mode : Lossy
Stream size : 592 MiB (4%)
Language : Spanish
Default : No
Forced : No
Audio #2
ID : 3
Format : DTS
Format/Info : Digital Theater Systems
Muxing mode : Header stripping
Codec ID : A_DTS
Duration : 2 h 9 min
Bit rate mode : Constant
Bit rate : 755 kb/s
Channel(s) : 6 channels
Channel positions : Front: L C R, Side: L R, LFE
Sampling rate : 48.0 kHz
Bit depth : 24 bits
Compression mode : Lossy
Stream size : 698 MiB (4%)
Language : Spanish
Default : No
Forced : No
Audio #3
ID : 4
Format : DTS
Format/Info : Digital Theater Systems
Muxing mode : Header stripping
Codec ID : A_DTS
Duration : 2 h 9 min
Bit rate mode : Constant
Bit rate : 1510 kb/s
Channel(s) : 6 channels
Channel positions : Front: L C R, Side: L R, LFE
Sampling rate : 48.0 kHz
Bit depth : 24 bits
Compression mode : Lossy
Stream size : 1.36 GiB (9%)
Language : English
Default : No
Forced : No
Text
ID : 5
Format : ASS
Codec ID : S_TEXT/ASS
Codec ID/Info : Advanced Sub Station Alpha
Compression mode : Lossless
Language : English
Default : No
Forced : No
Enjoy and seed!
┬íDisfruta y siembra!